<mxfile host="app.diagrams.net" modified="2020-06-07T18:53:29.030Z" agent="5.0 (Windows NT 10.0; Win64; x64) AppleWebKit/537.36 (KHTML, like Gecko) Chrome/83.0.4103.97 Safari/537.36" etag="BPZl_nySjNQs3wqK5Vq0" version="13.1.14" type="github" pages="2">
  <diagram id="wyKsKyXAg7ptqats9gGv" name="Page-1">
    <mxGraphModel dx="1422" dy="762" grid="1" gridSize="10" guides="1" tooltips="1" connect="1" arrows="1" fold="1" page="1" pageScale="1" pageWidth="850" pageHeight="1100" math="0" shadow="0">
      <root>
        <mxCell id="0" />
        <mxCell id="1" parent="0" />
      </root>
    </mxGraphModel>
  </diagram>
  <diagram id="8jNvSH5YjKGtZ1wRLKCN" name="Page-2">
    
    <mxGraphModel dx="1370" dy="762" grid="1" gridSize="10" guides="1" tooltips="1" connect="1" arrows="1" fold="1" page="1" pageScale="1" pageWidth="850" pageHeight="1100" math="0" shadow="0">
      
      <root>
        
        <mxCell id="7tDabKMrDmiTrlXmQqOC-0" />
        
        <mxCell id="7tDabKMrDmiTrlXmQqOC-1" parent="7tDabKMrDmiTrlXmQqOC-0" />
        
      </root>
      
    </mxGraphModel>
    
  </diagram>
</mxfile>
